<?xml version="1.0" standalone="no"?>
<svg xmlns:xlink="http://www.w3.org/1999/xlink" id="wave" style="transform:rotate(180deg); transition: 0.3s" viewBox="0 0 1440 190" version="1.1" xmlns="http://www.w3.org/2000/svg"><defs><linearGradient id="sw-gradient-0" x1="0" x2="0" y1="1" y2="0"><stop stop-color="rgba(255, 241, 118, 1)" offset="0%"/><stop stop-color="rgba(255, 235, 59, 1)" offset="100%"/></linearGradient></defs><path style="transform:translate(0, 0px); opacity:1" fill="url(#sw-gradient-0)" d="M0,171L48,171C96,171,192,171,288,164.7C384,158,480,146,576,145.7C672,146,768,158,864,164.7C960,171,1056,171,1152,161.5C1248,152,1344,133,1440,107.7C1536,82,1632,51,1728,38C1824,25,1920,32,2016,31.7C2112,32,2208,25,2304,47.5C2400,70,2496,120,2592,120.3C2688,120,2784,70,2880,66.5C2976,63,3072,108,3168,114C3264,120,3360,89,3456,72.8C3552,57,3648,57,3744,72.8C3840,89,3936,120,4032,139.3C4128,158,4224,165,4320,148.8C4416,133,4512,95,4608,91.8C4704,89,4800,120,4896,123.5C4992,127,5088,101,5184,98.2C5280,95,5376,114,5472,129.8C5568,146,5664,158,5760,145.7C5856,133,5952,95,6048,88.7C6144,82,6240,108,6336,104.5C6432,101,6528,70,6624,72.8C6720,76,6816,114,6864,133L6912,152L6912,190L6864,190C6816,190,6720,190,6624,190C6528,190,6432,190,6336,190C6240,190,6144,190,6048,190C5952,190,5856,190,5760,190C5664,190,5568,190,5472,190C5376,190,5280,190,5184,190C5088,190,4992,190,4896,190C4800,190,4704,190,4608,190C4512,190,4416,190,4320,190C4224,190,4128,190,4032,190C3936,190,3840,190,3744,190C3648,190,3552,190,3456,190C3360,190,3264,190,3168,190C3072,190,2976,190,2880,190C2784,190,2688,190,2592,190C2496,190,2400,190,2304,190C2208,190,2112,190,2016,190C1920,190,1824,190,1728,190C1632,190,1536,190,1440,190C1344,190,1248,190,1152,190C1056,190,960,190,864,190C768,190,672,190,576,190C480,190,384,190,288,190C192,190,96,190,48,190L0,190Z"/></svg>